<?xml version="1.0" encoding="UTF-8" standalone="no"?>
<!-- Created with Inkscape (http://www.inkscape.org/) -->

<svg
   width="197.33119mm"
   height="43.452065mm"
   viewBox="0 0 197.33119 43.452065"
   version="1.1"
   id="svg1"
   inkscape:version="1.4.2 (ebf0e940, 2025-05-08)"
   sodipodi:docname="handwritten_name.svg"
   xmlns:inkscape="http://www.inkscape.org/namespaces/inkscape"
   xmlns:sodipodi="http://sodipodi.sourceforge.net/DTD/sodipodi-0.dtd"
   xmlns="http://www.w3.org/2000/svg"
   xmlns:svg="http://www.w3.org/2000/svg">
  <sodipodi:namedview
     id="namedview1"
     pagecolor="#ffffff"
     bordercolor="#000000"
     borderopacity="0.25"
     inkscape:showpageshadow="2"
     inkscape:pageopacity="0.0"
     inkscape:pagecheckerboard="0"
     inkscape:deskcolor="#d1d1d1"
     inkscape:document-units="mm"
     inkscape:zoom="0.13356823"
     inkscape:cx="771.14146"
     inkscape:cy="160.96642"
     inkscape:window-width="1120"
     inkscape:window-height="464"
     inkscape:window-x="0"
     inkscape:window-y="38"
     inkscape:window-maximized="0"
     inkscape:current-layer="layer1" />
  <defs
     id="defs1" />
  <g
     inkscape:label="Layer 1"
     inkscape:groupmode="layer"
     id="layer1"
     transform="translate(-5.1393268,-120.31096)">
    <path
       style="fill:#000000;stroke-width:0.132662"
       d="m 69.639728,163.69189 c -0.0747,-0.0704 -0.192792,-0.12794 -0.262362,-0.12794 -0.430801,0 -2.055215,-1.46081 -1.988265,-1.78802 0.241144,-1.17854 2.58533,-5.54397 5.089615,-9.47807 0.612521,-0.96223 0.818247,-1.35828 0.683105,-1.315 -1.724719,0.55226 -3.062942,0.67063 -3.805463,0.33662 -0.689931,-0.31036 -2.226806,-1.52826 -2.226806,-1.76464 0,-0.37021 2.026511,-3.1053 3.744541,-5.05383 0.413612,-0.46911 1.054048,-1.20705 1.423185,-1.63986 0.843301,-0.9888 1.272796,-0.9351 2.774866,0.34695 l 0.466645,0.39829 -0.357508,0.42545 c -0.196628,0.23401 -0.925829,1.08779 -1.620442,1.89729 -1.208159,1.40801 -2.39319,2.89073 -2.39319,2.9944 0,0.0269 0.389332,-0.0813 0.865164,-0.24051 2.375477,-0.7946 3.09757,-0.74957 4.428863,0.27615 1.401121,1.07953 1.647801,0.38411 -2.563571,7.22696 -1.609998,2.616 -3.721993,6.81788 -3.541563,7.04603 0.213551,0.27005 -0.459707,0.70185 -0.716814,0.45973 z m -29.521756,-0.43823 c -0.586274,-0.093 -1.473357,-0.32103 -1.473357,-0.37869 0,-0.0357 -0.25672,-0.13158 -0.570495,-0.21303 -0.850385,-0.22074 -0.884448,-0.26624 -0.745261,-0.99553 0.06495,-0.34023 0.141233,-1.01472 0.169543,-1.49887 0.02829,-0.48416 0.07639,-0.91174 0.106768,-0.95019 0.08513,-0.10764 0.658784,-3.24317 1.147542,-6.27235 1.492811,-9.25191 1.211858,-8.57902 3.259031,-7.80533 l 0.893828,0.3378 0.608451,-0.30418 c 2.27149,-1.13558 4.184376,-1.33018 5.334989,-0.54274 0.120048,0.0822 0.32521,0.17468 0.455911,0.20561 1.300115,0.30765 0.888227,1.66811 -1.305877,4.31332 -2.697262,3.25181 -3.407331,4.07273 -4.172626,4.82399 -0.997831,0.97954 -1.125696,0.77137 2.17063,3.53385 0.53233,0.44612 1.593816,1.38685 2.35886,2.09051 0.765045,0.70367 1.766865,1.60372 2.22625,2.0001 0.459384,0.39638 0.816974,0.76101 0.794635,0.81028 -0.09121,0.20117 -1.690848,-0.11075 -2.145801,-0.41843 -0.09004,-0.0609 -0.352625,-0.16286 -0.583534,-0.2266 -0.461842,-0.1275 -0.691817,-0.31435 -1.981206,-1.60967 -1.934853,-1.94373 -2.411257,-2.39271 -3.688744,-3.47647 l -1.331607,-1.12965 -0.296627,1.85464 c -0.163153,1.02005 -0.325806,2.3536 -0.361457,2.96344 -0.0357,0.60985 -0.110901,1.31736 -0.167198,1.57226 -0.05633,0.2549 -0.102384,0.60679 -0.102384,0.78198 0,0.1752 -0.02982,0.37925 -0.06624,0.45345 -0.0664,0.13531 -0.129041,0.14475 -0.534015,0.0805 z m 5.696914,-16.3523 0.48302,-0.58492 -0.677303,0.3713 c -0.873569,0.47889 -2.142675,1.39751 -2.230924,1.6148 -0.04964,0.12225 -0.149429,0.16252 -0.360514,0.14549 -0.317635,-0.0256 -0.309561,-0.0526 -0.604551,2.02348 l -0.07269,0.51176 1.489982,-1.7485 c 0.819488,-0.96167 1.707344,-2.01171 1.973002,-2.33341 z m -34.072883,16.08331 c 0.04174,-0.12705 0.09819,-0.32426 0.12552,-0.43826 0.02732,-0.11399 0.07091,-0.23413 0.09694,-0.26699 0.02595,-0.0328 0.245334,-0.80318 0.487444,-1.71183 0.242102,-0.90865 0.512595,-1.92077 0.601094,-2.24914 0.280018,-1.03902 0.802372,-3.12708 0.981521,-3.92347 0.208337,-0.92615 0.316837,-1.39251 0.545691,-2.34555 0.09575,-0.39874 0.315564,-1.35829 0.488484,-2.13232 0.172912,-0.77403 0.34281,-1.52247 0.37755,-1.66321 0.03473,-0.14073 0.110628,-0.5094 0.168649,-0.81926 0.05802,-0.30987 0.129952,-0.61692 0.159841,-0.68234 0.0299,-0.0654 0.103351,-0.40682 0.163242,-0.75866 0.05987,-0.35184 0.178037,-0.96594 0.262555,-1.36469 0.257873,-1.21662 1.810107,-8.29898 1.878701,-8.57193 0.03538,-0.14073 0.205863,-0.86998 0.37888,-1.62056 0.173008,-0.75057 0.439335,-1.90004 0.591826,-2.55438 0.340433,-1.46072 0.340473,-1.45684 -0.01023,-0.98527 -0.56205,0.75567 -2.974307,3.64186 -3.528709,4.222 -0.224149,0.23455 -0.769663,0.81028 -1.212253,1.27939 -2.516502,2.66728 -4.7760892,4.41467 -6.7038192,5.1842 -2.314506,0.92392 -2.455603,0.96677 -2.455603,0.74584 0,-0.10413 0.25228,-0.30485 0.689939,-0.54892 1.670783,-0.93176 5.4299182,-4.81883 8.2559482,-8.53696 0.499186,-0.65675 1.023393,-1.3372 1.164909,-1.51212 0.141516,-0.1749 0.257309,-0.33879 0.257309,-0.36419 0,-0.0254 0.114616,-0.18933 0.254706,-0.36432 0.845202,-1.05571 3.935689,-5.88654 4.81431,-7.52539 0.741506,-1.38308 1.466387,-2.02861 2.898049,-2.58081 0.987686,-0.38096 2.392102,-0.68178 2.592026,-0.55521 0.211988,0.13422 0.152419,0.54412 -0.362787,2.49632 -0.24593,0.93186 -0.763191,3.01835 -1.131264,4.56317 -0.18442,0.77403 -0.382555,1.58005 -0.44031,1.79115 -0.05778,0.21109 -0.206782,0.84439 -0.33119,1.40732 -0.124407,0.56294 -0.32363,1.44572 -0.442711,1.96174 -0.33654,1.45828 -0.51075,2.23445 -0.698747,3.11318 -0.19907,0.93051 -0.442679,2.04482 -0.66196,3.02791 -0.175918,0.78868 -0.379782,1.76293 -0.446185,2.13231 -0.0253,0.14074 -0.115599,0.56294 -0.200673,0.93822 -0.08507,0.37529 -0.19085,0.87426 -0.235076,1.10881 -0.04424,0.23455 -0.08775,0.44565 -0.09673,0.46911 -0.0089,0.0234 -0.05254,0.23455 -0.09673,0.46911 -0.04424,0.23456 -0.146439,0.73352 -0.227129,1.10881 -0.0807,0.37529 -0.22746,1.06616 -0.326137,1.53527 -0.09867,0.46912 -0.225671,1.02565 -0.28221,1.23675 -0.05657,0.2111 -0.127002,0.54501 -0.156585,0.74203 -0.02957,0.19701 -0.107888,0.54245 -0.174008,0.76763 -0.06616,0.22518 -0.162033,0.62053 -0.213124,0.87854 -0.05109,0.25801 -0.193904,0.89131 -0.317361,1.40733 -0.123457,0.51602 -0.2495,1.05336 -0.28009,1.1941 -0.46887,2.15716 -1.659316,6.57064 -2.116549,7.84693 -0.304661,0.85042 -0.85949,1.19958 -3.286027,2.06794 -0.270122,0.0967 -0.663015,0.24081 -0.873109,0.32034 -0.812219,0.30746 -1.013199,0.32052 -0.927787,0.0603 z m 77.20282,-0.8634 c -0.216863,-0.034 -0.56064,-0.13845 -0.763965,-0.23197 -0.203317,-0.0935 -0.635085,-0.24435 -0.959489,-0.33517 -0.807851,-0.22619 -0.928246,-0.4815 -1.747017,-3.70479 -1.132819,-4.45968 -1.019581,-4.21213 -1.761925,-3.85149 -0.304757,0.14805 -0.598821,0.26919 -0.653474,0.26919 -0.05472,0 -0.179544,0.0956 -0.277528,0.2125 -0.09799,0.11688 -0.221722,0.19146 -0.274957,0.16576 -0.05327,-0.0257 -0.199118,-0.0621 -0.324186,-0.081 -0.125077,-0.0188 -0.31554,-0.0561 -0.423258,-0.0828 -0.237759,-0.059 -0.324469,0.17771 -0.655755,1.7899 -0.576306,2.80455 -1.030944,4.40462 -1.235647,4.34875 -0.07293,-0.0199 -0.329086,-0.0537 -0.56919,-0.075 -0.497115,-0.0442 -0.806659,-0.12198 -1.022442,-0.2569 -0.08213,-0.0514 -0.450472,-0.17078 -0.818537,-0.26539 -0.761201,-0.19567 -0.789365,-0.27416 -0.447982,-1.24824 0.08793,-0.25091 0.625511,-2.26012 1.194605,-4.46494 2.141224,-8.29565 2.970865,-10.62085 3.664979,-10.27181 0.08681,0.0437 0.329723,0.11674 0.539808,0.16244 0.3998,0.087 1.388687,0.54237 1.855348,0.85446 0.150058,0.10036 0.361312,0.22885 0.46945,0.28553 0.134569,0.0705 0.214252,0.25041 0.252546,0.5701 0.187957,1.56902 1.085629,4.8147 1.370691,4.95594 0.07954,0.0394 0.253473,0.0723 0.386496,0.073 0.280412,0.001 1.013223,0.25775 1.013223,0.35428 0,0.036 0.224575,0.14314 0.499056,0.23803 0.861449,0.2978 0.545966,0.59483 -1.290775,1.21523 -0.04529,0.0153 0.06632,0.48833 0.247969,1.05119 0.289382,0.8966 0.828506,2.69797 1.378412,4.60569 0.523877,1.81745 0.953622,3.00092 1.150661,3.16881 0.500121,0.42615 0.114157,0.69185 -0.797117,0.54872 z m -5.690144,-10.35421 c 0.195089,-0.0817 0.354704,-0.17861 0.354704,-0.21544 0,-0.10117 -0.659534,-2.09308 -0.704727,-2.1284 -0.05286,-0.0413 -0.110917,0.13068 -0.38286,1.13359 -0.127196,0.46911 -0.278318,1.01385 -0.335815,1.21054 -0.05746,0.19669 -0.104536,0.37713 -0.104536,0.40097 0,0.0457 0.57658,-0.15149 1.173234,-0.40126 z m 23.028101,10.36885 c -0.25857,-0.0466 -0.1798,-0.62381 0.29982,-2.1969 0.63941,-2.09719 0.80651,-2.69888 1.14885,-4.1367 0.18429,-0.77403 0.4755,-1.98305 0.64714,-2.68672 0.78487,-3.21774 0.97064,-4.00678 1.48601,-6.31166 0.1758,-0.78622 0.67893,-3.18956 0.81243,-3.88083 0.0498,-0.25802 0.21538,-1.04484 0.36788,-1.74851 0.15251,-0.70366 0.42568,-2.00864 0.60703,-2.89995 0.18136,-0.89131 0.37956,-1.85086 0.44048,-2.13232 0.17607,-0.81368 0.78628,-3.71103 0.8802,-4.17935 0.047,-0.23456 0.16673,-0.7719 0.26596,-1.1941 0.0992,-0.42219 0.24784,-1.07469 0.33022,-1.44998 0.0824,-0.37528 0.32759,-1.48835 0.54492,-2.47348 0.48012,-2.17635 0.77197,-3.5963 0.86777,-4.222 0.12784,-0.83495 0.11476,-0.82085 0.91451,-0.98599 0.4632,-0.0957 1.29474,-0.16426 2.28821,-0.18877 l 1.5606,-0.0385 -0.0676,0.45738 c -0.0658,0.44511 -0.31995,1.98814 -0.44066,2.67499 -0.033,0.18765 -0.15699,0.84014 -0.27558,1.44998 -0.11859,0.60985 -0.262,1.35829 -0.3187,1.66321 -0.10805,0.58116 -0.33502,1.7327 -0.5968,3.0279 -0.3146,1.55657 -0.60894,3.07914 -0.65946,3.41132 -0.15888,1.04457 -0.74997,4.21026 -1.21045,6.48264 -0.15209,0.75057 -0.32027,1.61416 -0.37373,1.91909 -0.0534,0.30492 -0.16849,0.91902 -0.25564,1.36467 -0.5657,2.8929 -0.73423,3.73465 -0.78553,3.92348 -0.0318,0.11728 0.39939,-0.32411 0.95835,-0.98086 1.02292,-1.20193 1.24344,-1.43788 2.42283,-2.59235 1.2702,-1.24337 3.6186,-3.18342 4.98125,-4.11511 0.96938,-0.66279 1.72602,-0.84687 3.7177,-0.90444 2.15159,-0.0622 2.1461,-0.11673 0.1445,1.43252 -1.58808,1.22919 -3.05712,2.48848 -3.81708,3.27206 -0.17807,0.18361 -0.49645,0.50985 -0.70752,0.725 -1.15298,1.17523 -3.70891,4.2535 -3.70891,4.46686 0,0.0246 -0.17701,0.28819 -0.39334,0.5859 -0.65854,0.90622 -3.31736,5.09619 -3.31736,5.22775 0,0.0154 -0.23864,0.42579 -0.53034,0.91191 -1.86749,3.11235 -2.95594,5.07343 -3.1335,5.64575 -0.0413,0.13291 -0.17893,0.27134 -0.30642,0.30803 -0.78485,0.22596 -1.14236,0.2708 -2.46887,0.30967 -0.81035,0.0238 -1.6207,0.0543 -1.80078,0.068 -0.18007,0.0137 -0.41337,0.009 -0.51841,-0.01 z m 37.66359,-0.23367 c -0.029,-0.0226 -0.22131,-0.0587 -0.42746,-0.08 -0.41531,-0.0431 -1.2723,-0.26698 -1.45675,-0.38059 -0.0652,-0.0402 -0.29965,-0.11861 -0.521,-0.1743 -0.86379,-0.21735 -1.23631,-0.69924 -0.74742,-0.96686 0.24468,-0.13393 0.34653,-0.92263 1.03797,-8.03779 0.2097,-2.1579 0.40506,-4.11537 0.43413,-4.34993 0.0291,-0.23455 0.10758,-0.90624 0.17447,-1.49262 0.0669,-0.5864 0.31123,-2.35196 0.54299,-3.92348 0.23177,-1.57152 0.54897,-3.79766 0.70491,-4.94697 0.85285,-6.28546 2.1752,-14.50158 2.34733,-14.58472 0.25702,-0.12414 2.39049,0.39491 2.92661,0.71202 0.0948,0.0561 0.12128,0.18719 0.0787,0.38973 -0.0913,0.43447 -0.58811,3.88402 -0.56244,3.90484 0.0117,0.01 0.48614,-0.25309 1.05421,-0.58358 3.9836,-2.31763 4.54382,-2.44716 6.708,-1.55104 0.9711,0.40211 0.91178,0.59499 -1.02833,3.34349 -1.87493,2.65613 -7.06526,10.89847 -6.93024,11.00531 0.024,0.019 0.30213,-0.0921 0.61788,-0.24705 0.31578,-0.15493 0.84426,-0.41112 1.17441,-0.56933 0.33013,-0.1582 0.91948,-0.44597 1.30964,-0.63949 2.64736,-1.31307 3.13816,-1.39066 4.75265,-0.75126 1.65839,0.65678 1.74606,0.20533 -0.97348,5.01297 -3.03843,5.37139 -4.64335,8.50572 -6.79039,13.26128 -1.0566,2.3403 -1.06366,2.36159 -0.84599,2.54957 0.30639,0.26458 -0.35587,1.32054 -0.76829,1.22502 -0.12713,-0.0294 -0.33435,-0.0651 -0.46049,-0.0792 -0.38232,-0.0428 -1.35314,-0.33683 -1.35314,-0.4099 0,-0.20249 -0.32844,-0.04 -0.33577,0.1661 -0.005,0.12901 -0.0223,0.29214 -0.0393,0.3625 -0.0171,0.0704 -0.0655,0.40751 -0.10777,0.74922 -0.10527,0.85179 -0.29747,1.25659 -0.51567,1.08607 z m 4.68021,-14.21289 c 0.4254,-0.82456 1.41633,-2.63394 2.20201,-4.02082 0.78571,-1.38688 1.42856,-2.543 1.42856,-2.56916 0,-0.0262 -0.18417,0.0508 -0.40927,0.17108 -0.2251,0.12026 -0.63027,0.31316 -0.90039,0.42867 -0.27012,0.11551 -0.81035,0.35454 -1.20052,0.53118 -1.18204,0.53512 -2.64187,1.17302 -3.47659,1.51914 -0.0898,0.0372 -0.52395,3.45682 -0.7289,5.74121 -0.0316,0.35183 -0.0797,0.85079 -0.10702,1.10881 -0.0273,0.258 -0.0769,0.81454 -0.11013,1.23674 -0.0333,0.42219 -0.0813,0.97873 -0.10676,1.23675 -0.0254,0.258 -0.0747,0.79535 -0.10941,1.19409 l -0.0632,0.72499 1.40405,-2.90172 c 0.77222,-1.59595 1.75211,-3.57638 2.17753,-4.40096 z m 2.27096,-17.80731 0.61819,-0.88684 -0.66376,0.40755 c -0.82795,0.50835 -1.75983,1.27155 -1.75983,1.44127 0,0.20456 -0.16434,0.23069 -0.63493,0.10093 l -0.43988,-0.12129 -0.062,0.31378 c -0.063,0.31909 -0.60939,4.04535 -0.60939,4.15628 0,0.0334 0.66002,-0.97108 1.46671,-2.23209 0.80668,-1.26101 1.74489,-2.69183 2.0849,-3.17959 z m -25.48833,31.83117 c -1.26447,-0.20015 -1.33935,-0.23355 -1.25505,-0.55992 0.62502,-2.41979 2.90578,-9.70121 3.77331,-12.04646 0.31235,-0.8444 0.56681,-1.59284 0.56547,-1.66321 -8.1e-4,-0.0704 0.1125,-0.33904 0.25299,-0.59705 0.90753,-1.66667 1.4445,-3.05272 1.2435,-3.20981 -0.62625,-0.48943 1.20759,-0.52594 2.70288,-0.0538 0.90571,0.28596 0.9243,0.30425 0.84732,0.83278 -0.0629,0.4317 0.71468,5.55154 1.14641,7.54842 0.11663,0.53947 0.289,1.61416 0.38304,2.38819 0.094,0.77403 0.32102,2.27092 0.50439,3.32642 0.30895,1.77833 0.38166,3.04531 0.18365,3.20005 -0.12702,0.0993 -1.98024,0.0736 -2.65368,-0.0368 -0.36015,-0.059 -0.75691,-0.1223 -0.88169,-0.14063 -0.33333,-0.049 -0.53455,-0.43542 -0.31575,-0.60642 0.0926,-0.0724 0.26364,-0.11218 0.38,-0.0884 0.24147,0.0494 0.2342,-0.18543 -0.0588,-1.90139 -0.23324,-1.36571 -0.48795,-3.27825 -0.48795,-3.6639 0,-0.58438 -1.98962,0.55036 -2.02466,1.15472 -0.0117,0.20174 -0.0634,0.24893 -0.2727,0.24893 -0.28581,0 -0.69023,1.04086 -0.57995,1.49262 0.0576,0.23603 -0.57658,2.72665 -0.96647,3.79553 l -0.24889,0.68234 -0.70939,0.0136 c -0.39017,0.008 -1.07774,-0.0446 -1.52794,-0.1159 z m 5.48682,-9.96765 0.41191,-0.29926 -0.0731,-0.57269 c -0.12207,-0.95667 -0.18673,-0.93878 -0.55162,0.15265 -0.37837,1.13173 -0.37422,1.14577 0.21278,0.7193 z m -107.230594,9.50866 c -0.105043,-0.0478 -0.190995,-0.0642 -0.190995,-0.0364 0,0.066 -1.004206,-0.38056 -1.145947,-0.50958 -0.06004,-0.0546 -0.337951,-0.20368 -0.617614,-0.3312 -0.615261,-0.28054 -0.637808,-0.32025 -0.516777,-0.90992 0.9066,-4.41712 1.871835,-8.37817 2.531248,-10.3876 0.414861,-1.2642 0.422283,-1.23219 -0.348483,-1.50382 -0.672613,-0.23704 -0.54744,-0.34545 1.025247,-0.88801 0.780339,-0.26921 2.671152,-0.99138 4.201814,-1.60482 3.076287,-1.23286 3.243228,-1.28247 3.697793,-1.09876 0.171945,0.0695 0.338853,0.10585 0.370894,0.0808 0.08242,-0.0644 0.718402,0.20218 1.169929,0.49041 0.919374,0.58688 0.893925,0.56419 0.7429,0.66228 -0.189303,0.12296 -4.740591,1.90294 -6.22577,2.43487 -1.095872,0.39249 -1.160751,0.42938 -0.999693,0.56846 0.175128,0.15123 0.118331,0.54838 -0.06568,0.45949 -0.05141,-0.0248 -0.121354,0.0236 -0.155498,0.10772 -0.150178,0.3698 -0.398462,1.17753 -0.714445,2.32432 -0.187248,0.67955 -0.382014,1.37917 -0.432823,1.55472 -0.06721,0.2322 -0.05842,0.30354 0.03223,0.26182 0.0685,-0.0316 0.61572,-0.3116 1.215976,-0.62236 2.558317,-1.32445 3.3144,-1.60177 3.87031,-1.41957 0.212342,0.0696 0.521347,0.14928 0.686683,0.17708 0.165329,0.0278 0.435451,0.14711 0.600256,0.26514 0.164805,0.11802 0.459264,0.28941 0.654345,0.38084 0.373198,0.17493 0.514617,0.59523 0.200278,0.59523 -0.227774,0 -1.648904,0.60498 -2.98479,1.27063 -1.44554,0.72029 -3.955248,2.04127 -4.163005,2.19119 -0.126422,0.0912 -0.210497,0.088 -0.473978,-0.0185 -0.17616,-0.0712 -0.333148,-0.11702 -0.348854,-0.10183 -0.06874,0.0664 -0.7209,3.3353 -0.67292,3.3728 0.06302,0.0493 1.919905,-0.73815 4.848012,-2.05579 1.158962,-0.52152 2.22351,-0.99694 2.365678,-1.05647 0.212528,-0.089 0.322962,-0.0861 0.621248,0.0161 0.19953,0.0684 0.502063,0.14745 0.672299,0.17568 0.170245,0.0282 0.430092,0.14554 0.57745,0.2607 0.147351,0.11516 0.411783,0.26752 0.58762,0.33859 1.051759,0.42505 0.692381,0.64073 -4.967012,2.98096 -4.362372,1.8039 -3.942297,1.68547 -4.874056,1.37403 -0.127752,-0.0427 -0.202286,-0.008 -0.252917,0.11621 -0.07865,0.1937 -0.228,0.21796 -0.520912,0.0846 z m 144.100004,-0.0536 -0.80781,-0.0329 0.0669,-1.38202 c 0.60191,-12.42911 1.37747,-19.28971 3.08695,-27.30686 0.63535,-2.97974 1.02943,-5.04374 1.25198,-6.55755 0.14551,-0.98969 0.28357,-1.21355 0.68641,-1.11292 0.12872,0.0321 0.40595,0.0675 0.61604,0.0786 0.32279,0.017 1.8683,0.44749 2.0133,0.5608 0.12536,0.098 -0.56337,4.0042 -1.41401,8.01967 -0.92305,4.35738 -1.37595,7.26854 -1.79609,11.5453 -0.43816,4.46037 -0.76694,9.18586 -0.632,9.08369 0.0309,-0.0235 0.67495,-1.00219 1.43105,-2.17497 1.48186,-2.29847 1.88585,-2.72228 2.5554,-2.68073 0.16387,0.0101 0.38369,-0.0103 0.4885,-0.0454 0.18524,-0.0621 0.42013,-0.0466 1.55614,0.10238 0.8988,0.11791 1.02674,0.26582 0.53941,0.62361 -0.47239,0.34683 -3.50464,4.86677 -4.74637,7.07505 -0.25059,0.44566 -0.64985,1.15571 -0.88725,1.57792 -0.38558,0.68575 -1.05607,1.98687 -1.21418,2.35619 -0.0996,0.23259 -1.17209,0.33628 -2.7944,0.27017 z m 12.75843,-0.1959 c -0.0967,-0.0517 -0.43743,-0.0659 -0.83241,-0.0348 -0.8864,0.0699 -0.8899,0.0302 -0.47277,-5.38098 0.22719,-2.94705 2.13746,-19.98943 2.61956,-23.37023 0.47987,-3.36507 1.00719,-6.26758 1.26804,-6.97959 0.0741,-0.20215 1.91462,-0.0326 2.1105,0.19442 0.03,0.0348 0.27558,0.11856 0.5457,0.18618 0.28817,0.0721 0.47866,0.16849 0.46098,0.23316 -0.37067,1.35532 -1.1255,6.19855 -1.49729,9.60696 -0.1535,1.40732 -0.44913,4.05567 -0.65698,5.8852 -0.56602,4.98267 -1.1443,10.3968 -1.1443,10.71355 0,0.24596 0.0532,0.19417 0.43561,-0.42377 0.28966,-0.4681 0.62193,-0.84581 0.9917,-1.12728 l 0.55611,-0.42332 0.83635,-0.0122 c 2.10107,-0.0306 2.61099,0.22106 1.83286,0.9046 -0.83964,0.73759 -1.77002,2.48588 -3.77081,7.0858 -0.97635,2.24468 -1.117,2.52493 -1.32876,2.64761 -0.40482,0.23453 -1.70088,0.42992 -1.95409,0.2946 z m 8.83918,-0.25578 c -0.21063,-0.0838 -0.57896,-0.29478 -0.81853,-0.46893 -0.23956,-0.17415 -0.61652,-0.41192 -0.83767,-0.52839 -0.46741,-0.24614 -0.45116,-0.34313 0.099,-0.59049 l 0.40201,-0.18076 -0.36273,-0.1466 -0.36273,-0.14658 0.0765,-0.61087 c 0.0696,-0.55634 0.46536,-2.02254 0.867,-3.2123 0.51981,-1.53977 0.75903,-2.21063 1.15572,-3.24112 0.2438,-0.6333 0.75346,-2.10035 1.13258,-3.26013 l 0.68934,-2.10868 -0.25574,-0.18778 c -0.47273,-0.34707 -0.51184,-0.31997 2.6364,-1.82719 2.87583,-1.3768 5.55649,-2.59459 5.71235,-2.59505 0.22053,-6.7e-4 1.30813,0.75567 1.38997,0.96659 0.0394,0.10143 0.19192,0.30997 0.33903,0.46341 0.49545,0.51679 0.4623,0.5412 -2.58471,1.90356 -4.34449,1.94248 -4.85961,2.18934 -4.8206,2.31015 0.0725,0.22447 0.0325,0.40432 -0.51748,2.3218 -0.66198,2.30817 -0.72588,2.14929 0.56786,1.41187 2.83361,-1.61513 3.98028,-2.08626 4.37403,-1.79718 0.13561,0.0996 0.30852,0.18102 0.38424,0.18102 0.60764,0 1.81224,1.365 1.3489,1.52851 -1.13257,0.39968 -5.57175,2.80763 -6.63014,3.59638 l -0.43656,0.32533 -0.51524,-0.20482 c -0.28339,-0.11265 -0.53461,-0.1779 -0.55827,-0.145 -0.10406,0.14474 -0.97019,3.26745 -0.91765,3.30851 0.0735,0.0574 1.41887,-0.4721 3.9934,-1.57178 3.60627,-1.5404 5.09697,-1.9304 5.62747,-1.47228 0.11412,0.0986 0.27184,0.17917 0.35049,0.17917 0.17272,0 0.91455,0.49593 0.91455,0.6114 0,0.0451 0.14733,0.17885 0.32741,0.29727 0.43607,0.28677 0.45255,0.62661 0.0304,0.62661 -0.7648,0 -5.72529,1.7873 -11.38055,4.10048 -0.91853,0.37571 -0.89425,0.37291 -1.41994,0.16387 z M 53.880741,159.74016 c -0.03497,-0.0442 -0.229394,-0.10466 -0.432091,-0.13439 -0.202696,-0.0297 -0.534747,-0.16837 -0.737887,-0.30812 -0.203131,-0.13976 -0.602625,-0.36843 -0.887744,-0.50817 -0.560333,-0.27461 -0.598152,-0.36568 -0.408156,-0.9828 0.05778,-0.18764 0.278761,-1.66535 0.491087,-3.28377 0.323163,-2.46326 0.647905,-4.68588 0.998991,-6.8374 0.06479,-0.39714 0.06415,-0.39808 -0.385721,-0.57746 -0.518438,-0.2067 -0.598322,-0.50334 -0.259654,-0.96415 0.143796,-0.19566 0.157286,-0.26916 0.05456,-0.29748 -0.1823,-0.0502 -0.172017,-0.23392 0.03022,-0.53956 0.161195,-0.24361 0.178142,-0.24808 0.518566,-0.13692 l 0.351916,0.11492 1.746058,-1.09579 c 0.960335,-0.60269 2.334677,-1.44858 3.05411,-1.87976 0.719426,-0.43118 1.603446,-0.97136 1.964476,-1.2004 1.008783,-0.63997 1.17416,-0.6912 1.840311,-0.57012 0.821857,0.1494 2.005325,0.75304 2.400531,1.22442 0.263071,0.31377 -0.267076,0.9737 -0.632063,0.7868 -0.301727,-0.15451 -0.473841,-0.0957 -1.496904,0.51165 -0.385262,0.2287 -1.179035,0.6845 -1.763948,1.01287 -2.085273,1.1707 -3.411409,1.94952 -4.035236,2.36984 l -0.633046,0.42652 0.273692,0.22325 c 0.189077,0.15424 0.24394,0.26085 0.177489,0.34489 -0.176715,0.22348 -0.669962,3.331 -0.528712,3.331 0.04787,0 1.10642,-0.39869 2.352374,-0.88598 2.577319,-1.00798 2.973557,-1.12791 3.289653,-0.9957 0.119048,0.0498 0.330182,0.0912 0.469175,0.0919 0.305386,0.002 1.311703,0.46407 1.912346,0.87866 0.3817,0.26347 0.07172,0.68476 -0.447813,0.60859 -0.293991,-0.0432 -0.56122,0.0255 -1.441179,0.37029 -0.594139,0.23276 -1.62049,0.61613 -2.280773,0.85194 -2.667688,0.9527 -3.095596,1.12174 -3.196626,1.26284 -0.09886,0.13805 -0.133336,0.13845 -0.555289,0.007 -0.423693,-0.13249 -0.450359,-0.13203 -0.458224,0.008 -0.0048,0.0817 -0.0224,0.20615 -0.03965,0.27652 -0.01716,0.0704 -0.066,0.49256 -0.108444,0.93821 -0.04239,0.44566 -0.09532,0.92543 -0.117517,1.06616 -0.02216,0.14074 -0.07204,0.55308 -0.110724,0.91631 l -0.07035,0.66043 1.891868,-0.92742 c 3.524302,-1.72766 4.78713,-2.19828 5.310918,-1.9792 0.122482,0.0512 0.341432,0.0931 0.486566,0.0931 0.145134,0 0.430761,0.0944 0.634714,0.20981 0.203962,0.11539 0.548947,0.28647 0.76664,0.38018 0.485551,0.20901 0.736034,0.60411 0.38299,0.60411 -0.410381,0 -2.638572,0.99974 -6.563068,2.94472 -2.402409,1.19062 -2.559945,1.25431 -2.958399,1.19589 -0.326202,-0.0478 -0.357968,-0.0328 -0.389993,0.18451 -0.03457,0.23446 -0.33293,0.37052 -0.460045,0.20979 z m 103.802429,-0.65728 c -0.28708,-0.0597 -0.58175,-0.14679 -0.65482,-0.19358 -0.0731,-0.0468 -0.35385,-0.12881 -0.62397,-0.18227 -1.21058,-0.23957 -1.65255,-0.83113 -1.96775,-2.63378 -0.58625,-3.35273 1.31105,-8.97082 3.02959,-8.97082 0.4796,0 2.05373,0.30073 2.49954,0.47752 0.37313,0.14797 0.40084,0.46071 0.0408,0.46071 -0.52378,0 -0.46653,0.3332 0.0798,0.46405 3.04529,0.72945 3.47203,2.32617 1.82026,6.811 -1.25942,3.41955 -2.13568,4.20116 -4.2234,3.76717 z m 0.74923,-4.04408 c 1.06504,-2.73917 1.35285,-5.16014 0.67629,-5.68888 -0.14401,-0.11255 -0.20699,-0.0216 -0.55155,0.79579 -0.89997,2.13506 -1.23514,4.47111 -0.88488,6.16736 l 0.0614,0.29754 0.15786,-0.2934 c 0.0868,-0.16136 0.3302,-0.73665 0.54084,-1.27841 z"
       id="path1" />
  </g>
</svg>
