<?xml version="1.0" encoding="UTF-8" standalone="no"?>
<!-- Created with Inkscape (http://www.inkscape.org/) -->

<svg
   width="210mm"
   height="297mm"
   viewBox="0 0 210 297"
   version="1.1"
   id="svg1"
   inkscape:version="1.4.2 (ebf0e940, 2025-05-08)"
   sodipodi:docname="TL.svg"
   xmlns:inkscape="http://www.inkscape.org/namespaces/inkscape"
   xmlns:sodipodi="http://sodipodi.sourceforge.net/DTD/sodipodi-0.dtd"
   xmlns="http://www.w3.org/2000/svg"
   xmlns:svg="http://www.w3.org/2000/svg">
  <sodipodi:namedview
     id="namedview1"
     pagecolor="#ffffff"
     bordercolor="#000000"
     borderopacity="0.25"
     inkscape:showpageshadow="2"
     inkscape:pageopacity="0.0"
     inkscape:pagecheckerboard="0"
     inkscape:deskcolor="#d1d1d1"
     inkscape:document-units="mm"
     inkscape:zoom="0.22"
     inkscape:cx="402.27273"
     inkscape:cy="559.09091"
     inkscape:window-width="1040"
     inkscape:window-height="509"
     inkscape:window-x="232"
     inkscape:window-y="156"
     inkscape:window-maximized="0"
     inkscape:current-layer="layer1" />
  <defs
     id="defs1" />
  <g
     inkscape:label="Layer 1"
     inkscape:groupmode="layer"
     id="layer1">
    <path
       style="fill:#000000;stroke-width:0.264583"
       d="m 62.364116,255.23485 c 0.05663,-0.29104 0.368951,-1.43836 0.694039,-2.54961 0.325091,-1.11125 0.627827,-2.23694 0.672748,-2.50153 0.04492,-0.26458 0.09523,-0.48106 0.111794,-0.48106 0.01656,0 0.06906,-0.21199 0.116647,-0.47107 0.04759,-0.2591 0.223168,-0.99512 0.390179,-1.6356 0.16701,-0.6405 0.342204,-1.38102 0.389316,-1.6456 0.04711,-0.26458 0.164369,-0.78412 0.260572,-1.15454 0.0962,-0.37041 0.225515,-0.97655 0.287361,-1.34696 0.06185,-0.37042 0.196924,-0.97655 0.30017,-1.34697 0.182557,-0.65498 0.711004,-3.07144 0.883687,-4.04093 0.04713,-0.26458 0.177268,-0.82709 0.289203,-1.25 0.111932,-0.42291 0.22937,-0.89916 0.260972,-1.05833 0.0316,-0.15917 0.334219,-1.63155 0.672486,-3.27197 0.338267,-1.64042 0.6531,-3.19905 0.699627,-3.46363 0.04653,-0.26459 0.121385,-0.61095 0.166349,-0.7697 0.04496,-0.15875 0.131259,-0.59169 0.191775,-0.96211 0.06051,-0.37041 0.16374,-0.84666 0.229391,-1.05833 0.06565,-0.21167 0.14555,-0.55803 0.177549,-0.7697 0.032,-0.21167 0.446897,-2.28986 0.921999,-4.6182 0.475099,-2.32833 0.914746,-4.53638 0.976995,-4.9068 0.06225,-0.37042 0.150259,-0.80338 0.19558,-0.96213 0.04532,-0.15875 0.13191,-0.59171 0.192423,-0.96213 0.06052,-0.37042 0.147106,-0.80336 0.192426,-0.96211 0.102505,-0.35906 0.287094,-1.42028 0.401648,-2.30909 0.04774,-0.37042 0.125326,-0.80338 0.172414,-0.96213 0.04708,-0.15875 0.135122,-0.59169 0.195635,-0.96211 0.06051,-0.37042 0.147103,-0.80338 0.192424,-0.96213 0.04532,-0.15875 0.129873,-0.56912 0.187896,-0.91194 0.05802,-0.34282 0.276537,-1.49108 0.48559,-2.55169 0.20905,-1.06063 0.427564,-2.2089 0.485587,-2.55172 0.05802,-0.34279 0.142576,-0.75319 0.187897,-0.91194 0.04532,-0.15875 0.13327,-0.59169 0.195447,-0.9621 0.06218,-0.37042 0.317601,-1.71257 0.567606,-2.98257 0.250007,-1.27 0.548388,-2.87195 0.663069,-3.55986 0.215681,-1.29379 0.322305,-1.87042 0.498121,-2.69394 0.206261,-0.96612 0.690173,-3.58349 0.764889,-4.13713 0.04692,-0.34764 0.336875,-1.92924 0.582081,-3.175 0.211322,-1.07363 0.522263,-2.81924 0.582689,-3.2712 0.09952,-0.74435 0.288279,-1.79737 0.379431,-2.11667 0.09115,-0.3193 0.279913,-1.37231 0.379431,-2.11667 0.06271,-0.46902 0.391088,-2.30692 0.58448,-3.2712 0.05306,-0.26458 0.136613,-0.78414 0.185666,-1.15456 0.04906,-0.37042 0.181372,-1.14972 0.29404,-1.7318 0.112667,-0.58209 0.250938,-1.36142 0.307274,-1.73183 0.17155,-1.12803 0.251237,-1.59163 0.463044,-2.69394 0.111848,-0.58208 0.243494,-1.36141 0.292547,-1.73183 0.04905,-0.37042 0.134223,-0.88995 0.189267,-1.15453 0.05504,-0.26459 0.228508,-1.26037 0.38548,-2.21287 0.156972,-0.9525 0.330155,-1.94832 0.384849,-2.2129 0.0547,-0.26458 0.228378,-1.26037 0.385967,-2.21287 0.385135,-2.32786 0.47748,-2.83517 0.57794,-3.175 0.04693,-0.15875 0.129659,-0.635 0.18384,-1.05833 0.05418,-0.42333 0.143547,-0.98618 0.198591,-1.25077 0.05504,-0.26458 0.22901,-1.26037 0.386599,-2.21287 0.382944,-2.31462 0.477192,-2.83344 0.576744,-3.175 0.04627,-0.15875 0.135149,-0.635 0.197508,-1.05833 0.192546,-1.30712 0.290566,-1.87595 0.563687,-3.27123 0.145018,-0.74083 0.357394,-1.90979 0.471946,-2.5977 0.306231,-1.83902 0.404987,-2.37252 0.498676,-2.69396 0.04627,-0.15875 0.135151,-0.635 0.197511,-1.05834 0.192543,-1.30709 0.290565,-1.87595 0.563687,-3.2712 0.145018,-0.74083 0.356888,-1.90982 0.470823,-2.59773 0.219472,-1.32511 0.324903,-1.89381 0.505796,-2.72833 0.06146,-0.28348 0.14355,-0.75973 0.182433,-1.05834 0.101277,-0.77771 0.28978,-1.84208 0.38581,-2.17847 0.04532,-0.15875 0.131911,-0.59171 0.192424,-0.96213 0.06051,-0.37042 0.14855,-0.80338 0.195638,-0.96213 0.04709,-0.15875 0.125709,-0.59169 0.174718,-0.96211 0.147748,-1.1167 0.337417,-2.20673 0.402508,-2.31317 0.03373,-0.0551 0.118893,-0.48628 0.189259,-0.95805 0.07036,-0.47178 0.156956,-0.90472 0.192423,-0.96211 0.03547,-0.0574 0.119925,-0.49218 0.187685,-0.96618 0.197149,-1.37919 0.30145,-1.99631 0.389588,-2.30505 0.04532,-0.15875 0.131911,-0.59169 0.192424,-0.9621 0.06051,-0.37042 0.147106,-0.80338 0.192423,-0.96213 0.04532,-0.15875 0.131911,-0.59169 0.192427,-0.96211 0.06051,-0.37041 0.14855,-0.80338 0.195635,-0.96213 0.04708,-0.15875 0.124825,-0.59171 0.172752,-0.96213 0.04793,-0.37042 0.403759,-2.2321 0.790742,-4.1371 0.75878,-3.735258 0.780364,-3.84895 0.949798,-5.003036 0.06215,-0.423333 0.15086,-0.899583 0.197133,-1.058333 0.04627,-0.15875 0.12142,-0.505116 0.166995,-0.769699 0.04558,-0.264584 0.274492,-1.389724 0.508703,-2.500339 0.547863,-2.597917 0.566013,-2.695125 0.503235,-2.695125 -0.0543,0 -0.716261,1.031901 -1.851601,2.886366 -0.356362,0.582083 -0.947743,1.534583 -1.314181,2.116666 -0.366437,0.582084 -0.856175,1.361414 -1.088308,1.731831 -1.429705,2.281399 -6.368883,9.755849 -7.88939,11.939009 -2.260299,3.24535 -3.263278,4.63436 -6.107356,8.45796 -8.139843,10.94324 -19.433752,23.34315 -22.888077,25.12943 -0.349936,0.18098 -1.069711,0.65117 -1.599497,1.0449 -1.206777,0.89685 -4.941128,2.94216 -5.966282,3.26773 -0.423334,0.13446 -1.722197,0.76338 -2.886364,1.39761 -2.639406,1.43791 -4.486849,2.14114 -4.844737,1.84412 -0.612778,-0.50855 0.0086,-1.61009 1.284888,-2.27772 0.264583,-0.13843 0.55087,-0.36991 0.636193,-0.51443 0.08532,-0.14454 0.577093,-0.47662 1.092822,-0.73795 0.515731,-0.26135 0.996561,-0.57044 1.068514,-0.68685 0.07195,-0.11642 0.38358,-0.36539 0.692502,-0.55325 0.642647,-0.39081 3.557704,-3.60532 6.977348,-7.69408 7.425407,-8.87833 12.550759,-15.96488 20.747337,-28.68618 1.232,-1.91212 5.520986,-8.93794 6.612823,-10.832543 0.414438,-0.719164 0.947733,-1.628352 1.185098,-2.020464 0.237366,-0.392086 0.569595,-0.972662 0.738286,-1.290162 0.645205,-1.214384 0.998839,-1.832028 1.183034,-2.06629 0.105015,-0.133535 0.561554,-0.93554 1.014529,-1.782206 0.452974,-0.846667 0.887169,-1.625997 0.964877,-1.731831 0.07771,-0.105833 0.514662,-0.885137 0.971007,-1.731803 0.456348,-0.846667 1.023686,-1.885765 1.26075,-2.309098 0.721646,-1.288654 2.284511,-4.252101 5.277007,-10.006055 2.935316,-5.64401 6.860526,-13.673458 8.44251,-17.270076 0.221117,-0.502709 0.584353,-1.325322 0.807188,-1.82803 0.437798,-0.98765 0.822185,-1.872846 1.274262,-2.93447 0.157737,-0.370417 0.407234,-0.924912 0.554444,-1.232215 0.14721,-0.307301 0.26765,-0.627378 0.26765,-0.711282 0,-2.145491 8.72149,-9.486985 11.74175,-9.883862 0.26671,-0.03505 0.80505,-0.252601 1.19632,-0.483452 0.39126,-0.230852 0.80462,-0.362106 0.91858,-0.29168 0.11395,0.07042 0.33486,0.02209 0.49091,-0.107423 0.29653,-0.246097 0.59562,-0.324453 3.48116,-0.911982 2.31033,-0.470408 3.70388,1.430258 2.48941,3.395305 -0.045,0.07285 -0.13795,0.52028 -0.20652,0.994294 -0.25642,1.772751 -0.33176,2.211731 -0.39821,2.320293 -0.0375,0.06131 -0.15886,0.667451 -0.26961,1.34697 -0.29255,1.794991 -0.39135,2.310741 -0.58685,3.06352 -0.0962,0.370417 -0.22006,0.933257 -0.27524,1.250757 -0.0552,0.3175 -0.27739,1.399886 -0.49382,2.405303 -0.21642,1.005417 -0.43864,2.087803 -0.49382,2.405303 -0.0552,0.3175 -0.17932,0.88034 -0.27588,1.250757 -0.0966,0.370417 -0.22644,0.976553 -0.28863,1.34697 -0.0622,0.370417 -0.19208,0.976553 -0.28864,1.34697 -0.0966,0.370417 -0.22575,0.976553 -0.28711,1.34697 -0.0614,0.370417 -0.15443,0.815128 -0.20685,0.98825 -0.0524,0.173123 -0.13756,0.649373 -0.18921,1.058334 -0.0516,0.408961 -0.13244,0.873453 -0.17952,1.032203 -0.0471,0.15875 -0.13582,0.591706 -0.19717,0.962123 -0.0614,0.370416 -0.19055,0.976553 -0.28711,1.34697 -0.0966,0.370416 -0.22575,0.976553 -0.28711,1.346969 -0.0614,0.370417 -0.14863,0.803371 -0.19395,0.962121 -0.0453,0.15875 -0.1326,0.591703 -0.19395,0.96212 -0.0614,0.370417 -0.19026,0.976553 -0.28647,1.34697 -0.17431,0.671182 -0.22879,0.945687 -0.47734,2.405303 -0.0721,0.423333 -0.3068,1.635607 -0.52158,2.69394 -0.21477,1.058333 -0.42778,2.14072 -0.47336,2.405303 -0.0456,0.264584 -0.12072,0.610947 -0.167,0.769697 -0.0463,0.15875 -0.13573,0.635 -0.1988,1.058341 -0.0631,0.423333 -0.24711,1.419119 -0.40898,2.212869 -0.16186,0.79375 -0.33217,1.659652 -0.37847,1.924235 -0.0463,0.264584 -0.12202,0.61095 -0.16829,0.7697 -0.0463,0.15875 -0.13515,0.635 -0.19751,1.058333 -0.21273,1.444122 -0.29431,1.924156 -0.37608,2.212896 -0.045,0.15875 -0.11963,0.505089 -0.16592,0.769673 -0.0463,0.264583 -0.21729,1.130511 -0.38,1.924261 -0.16271,0.79375 -0.35185,1.830996 -0.42031,2.305024 -0.0685,0.474001 -0.15208,0.906965 -0.1858,0.962104 -0.0337,0.05517 -0.11522,0.446643 -0.18109,0.869977 -0.0659,0.423333 -0.15763,0.899583 -0.2039,1.058333 -0.11993,0.411454 -0.2758,1.30683 -0.40007,2.298093 -0.0589,0.47019 -0.13812,0.90498 -0.17594,0.96618 -0.0378,0.0612 -0.12635,0.49728 -0.19671,0.96906 -0.0704,0.47178 -0.15955,0.90892 -0.19818,0.97142 -0.0386,0.0625 -0.12768,0.54059 -0.19789,1.06241 -0.13332,0.99081 -0.20242,1.39755 -0.37363,2.1995 -0.18187,0.85186 -0.2869,1.41902 -0.48106,2.59774 -0.19417,1.17871 -0.2992,1.74585 -0.48106,2.59773 -0.17121,0.80195 -0.24031,1.20869 -0.37363,2.19951 -0.0702,0.52181 -0.15927,0.99988 -0.1979,1.0624 -0.0386,0.0625 -0.12567,0.50147 -0.19343,0.97547 -0.19715,1.37919 -0.30145,1.99631 -0.38959,2.30502 -0.096,0.33639 -0.28453,1.40079 -0.38581,2.1785 -0.0389,0.29858 -0.12098,0.77483 -0.18243,1.05834 -0.18459,0.85153 -0.29035,1.41954 -0.49009,2.63212 -0.1046,0.635 -0.23526,1.37102 -0.29035,1.6356 -0.0551,0.26459 -0.22861,1.26037 -0.38558,2.21287 -0.15697,0.9525 -0.32938,1.94832 -0.38313,2.2129 -0.0537,0.26458 -0.18331,1.0006 -0.28791,1.6356 -0.1046,0.635 -0.23488,1.37102 -0.28951,1.6356 -0.0546,0.26459 -0.19136,1.0872 -0.30386,1.82803 -0.11249,0.74084 -0.28034,1.65003 -0.37298,2.02044 -0.0926,0.37042 -0.22029,1.143 -0.28365,1.71683 -0.0633,0.57386 -0.14725,1.09522 -0.18643,1.15864 -0.0634,0.10263 -0.25011,1.15093 -0.39601,2.22379 -0.0288,0.21167 -0.1562,0.94769 -0.28315,1.63561 -0.12695,0.68791 -0.25976,1.46722 -0.29513,1.7318 -0.0995,0.74438 -0.28828,1.79739 -0.37943,2.11667 -0.087,0.30461 -0.19466,0.93895 -0.377,2.22059 -0.0608,0.42757 -0.15289,0.99042 -0.20457,1.25077 -0.0517,0.26035 -0.1383,0.8197 -0.19249,1.24303 -0.0542,0.42334 -0.1372,0.89959 -0.18449,1.05834 -0.093,0.31213 -0.27975,1.34435 -0.383004,2.11666 -0.03538,0.26459 -0.167783,1.04392 -0.294246,1.73183 -0.12646,0.68792 -0.264199,1.51054 -0.306086,1.82804 -0.04189,0.3175 -0.121271,0.79375 -0.176413,1.05833 -0.05514,0.26458 -0.228687,1.26037 -0.385659,2.21287 -0.156972,0.9525 -0.329057,1.94829 -0.382408,2.21287 -0.05335,0.26458 -0.225436,1.26039 -0.382408,2.21289 -0.156972,0.9525 -0.330438,1.94829 -0.385479,2.21287 -0.05504,0.26459 -0.14441,0.82743 -0.198591,1.25077 -0.05418,0.42333 -0.136911,0.89958 -0.18384,1.05833 -0.105609,0.35724 -0.217223,0.96528 -0.582819,3.175 -0.28988,1.7521 -0.389991,2.30397 -0.575953,3.175 -0.208161,0.97502 -0.300501,1.48074 -0.579716,3.175 -0.288207,1.74882 -0.387844,2.29918 -0.574831,3.175 -0.05649,0.26458 -0.143078,0.69755 -0.192423,0.96213 -0.04935,0.26459 -0.135938,0.69752 -0.192426,0.96211 -0.05649,0.26458 -0.143076,0.69754 -0.192424,0.96213 -0.04935,0.26458 -0.140001,0.713 -0.201454,0.9965 -0.06145,0.2835 -0.143547,0.75975 -0.18243,1.05833 -0.0928,0.71258 -0.216453,1.39425 -0.674449,3.7179 -0.20905,1.06061 -0.427564,2.20887 -0.485587,2.55169 -0.05802,0.34282 -0.142579,0.75319 -0.187897,0.91194 -0.04532,0.15875 -0.13191,0.59169 -0.192426,0.96211 -0.06051,0.37041 -0.147103,0.80338 -0.192423,0.96213 -0.04532,0.15875 -0.131911,0.59171 -0.192424,0.96213 -0.06051,0.37042 -0.147106,0.80335 -0.192423,0.9621 -0.102508,0.35907 -0.287097,1.42029 -0.401649,2.3091 -0.04774,0.37042 -0.125327,0.80338 -0.172413,0.96213 -0.04709,0.15875 -0.133085,0.56912 -0.191108,0.91194 -0.05802,0.34279 -0.27654,1.49106 -0.48559,2.55169 -0.20905,1.06064 -0.427564,2.2089 -0.485587,2.5517 -0.05802,0.34282 -0.142576,0.75319 -0.187897,0.91194 -0.04532,0.15875 -0.13191,0.59171 -0.192423,0.96213 -0.06052,0.37041 -0.147106,0.80338 -0.192426,0.96213 -0.04532,0.15875 -0.131911,0.59168 -0.192424,0.9621 -0.06051,0.37042 -0.146812,0.80338 -0.191775,0.96213 -0.04496,0.15875 -0.119621,0.50512 -0.16591,0.7697 -0.07746,0.44275 -0.35057,1.8261 -0.427384,2.16477 -0.01802,0.0794 -0.05438,0.18762 -0.08084,0.24053 -0.06494,0.12989 -0.09179,0.24622 -0.288636,1.25077 -0.09332,0.47625 -0.179917,0.90918 -0.192424,0.9621 -0.01252,0.0529 -0.0991,0.48588 -0.192423,0.96213 -0.09333,0.47625 -0.178708,0.90919 -0.189736,0.96211 -0.04057,0.19465 -0.295116,1.45483 -0.369255,1.82803 -0.304485,1.53273 -0.732687,3.43646 -0.973828,4.32956 -0.157168,0.58208 -0.276616,1.05833 -0.265443,1.05833 0.04906,0 -0.340468,1.98814 -0.405286,2.06857 -0.02133,0.0265 -0.06932,0.21011 -0.106654,0.40809 -0.03733,0.19802 -0.162703,0.76084 -0.278603,1.25077 -0.115898,0.4899 -0.243644,1.06394 -0.283877,1.27561 -0.04023,0.21166 -0.263131,1.12085 -0.495332,2.02043 -0.232201,0.89959 -0.462163,1.85209 -0.511029,2.11667 -0.157745,0.8541 -1.832965,6.62615 -2.038427,7.0235 -0.349223,0.67535 -1.370232,1.6438 -2.16435,2.05293 -0.423333,0.21809 -0.942877,0.59526 -1.154544,0.83817 -0.449982,0.51639 -6.656525,3.93996 -7.142683,3.93996 -0.181626,0 -1.050901,0.38966 -1.931718,0.86591 -0.880819,0.47625 -1.753846,0.86735 -1.94006,0.86913 -0.186213,0.003 -1.061654,0.39142 -1.945425,0.8659 -0.88377,0.47447 -1.809512,0.8627 -2.057205,0.8627 -0.247692,0 -0.503864,0.0866 -0.569274,0.19243 -0.273754,0.44294 -0.718468,0.1991 -0.614197,-0.33676 z m 24.688958,-9.03716 c -0.08368,-0.0831 -0.382571,-0.15108 -0.66421,-0.15108 h -0.512066 l 0.05859,-2.11667 c 0.05115,-1.84785 0.17337,-2.9006 0.513805,-4.42576 0.04725,-0.21167 0.484227,-1.8569 0.971063,-3.65607 0.767704,-2.83715 2.825265,-11.09993 3.060086,-12.28873 0.04468,-0.22619 0.429247,-2.1431 0.854596,-4.25976 0.42535,-2.11667 0.819441,-4.10824 0.875758,-4.42574 0.05632,-0.3175 0.409326,-2.13593 0.784463,-4.04093 0.375139,-1.905 0.722878,-3.68991 0.772758,-3.96645 0.04988,-0.27654 0.74895,-3.78346 1.553495,-7.79316 0.804548,-4.00971 1.496907,-7.46358 1.538579,-7.67525 0.04167,-0.21167 0.164801,-0.8178 0.273624,-1.34697 0.108821,-0.52916 0.238707,-1.17858 0.288637,-1.44317 0.04993,-0.26458 0.179813,-0.91402 0.288634,-1.44319 0.230579,-1.12123 0.255497,-1.24865 0.79009,-4.0409 0.222888,-1.16417 0.444987,-2.37644 0.493557,-2.69394 0.04857,-0.3175 0.164063,-0.88035 0.256659,-1.25076 0.09259,-0.37042 0.343916,-1.66929 0.558496,-2.88637 0.214582,-1.21708 0.436682,-2.47264 0.493552,-2.79014 0.59571,-3.32544 1.68941,-9.59029 1.93159,-11.06439 0.0435,-0.26459 0.30163,-1.77994 0.57369,-3.36744 0.27206,-1.5875 0.53719,-3.14613 0.58918,-3.46363 0.052,-0.3175 0.21932,-1.27 0.37184,-2.11667 0.15252,-0.84666 0.31872,-1.79916 0.36933,-2.11666 0.0506,-0.3175 0.31771,-1.87614 0.59354,-3.46364 1.10956,-6.3859 1.24885,-7.1859 1.54122,-8.8515 0.16719,-0.9525 0.47756,-2.72762 0.68971,-3.9447 0.21215,-1.21708 0.55229,-3.16539 0.75587,-4.32956 0.20359,-1.16417 0.42129,-2.46303 0.4838,-2.88637 0.0625,-0.42333 0.14755,-0.89958 0.18899,-1.05833 0.0414,-0.15875 0.12733,-0.67829 0.19086,-1.15454 0.0635,-0.47625 0.15012,-0.99578 0.19242,-1.15453 0.0423,-0.15875 0.1289,-0.67831 0.19243,-1.15456 0.0635,-0.47625 0.15012,-0.99579 0.19242,-1.15454 0.0423,-0.15875 0.1289,-0.67829 0.19243,-1.15454 0.0635,-0.47625 0.15012,-0.99581 0.19242,-1.15456 0.0423,-0.15875 0.12889,-0.67828 0.19242,-1.15453 0.0635,-0.47625 0.15012,-0.99579 0.19243,-1.15454 0.0423,-0.15875 0.12889,-0.67831 0.19242,-1.15456 0.0635,-0.47625 0.15012,-0.99579 0.19243,-1.15454 0.0423,-0.15875 0.1314,-0.67831 0.19799,-1.15456 0.22206,-1.58816 2.30463,-13.78204 2.892,-16.933307 0.14795,-0.79375 0.31886,-1.74625 0.3798,-2.116667 0.061,-0.370417 0.49156,-2.751667 0.95693,-5.291667 0.46536,-2.54 0.89326,-4.877964 0.95088,-5.195464 0.0576,-0.3175 0.15326,-0.837036 0.21253,-1.154536 0.32204,-1.72507 2.20003,-12.031665 2.29658,-12.603794 0.0625,-0.370417 0.32426,-1.799167 0.58168,-3.175 0.25743,-1.375834 0.51643,-2.804584 0.57556,-3.175 0.1309,-0.819978 0.82979,-4.720778 0.96533,-5.387877 0.20506,-1.009309 1.79775,-10.921868 1.91689,-11.930303 0.37854,-3.204149 0.63196,-3.950065 1.39387,-4.102838 1.30364,-0.261398 1.71333,-0.36176 2.0739,-0.508053 0.36223,-0.146971 1.32903,-0.335683 4.04091,-0.78875 1.43495,-0.239736 9.51443,-0.35343 9.64895,-0.135779 0.0542,0.08764 0.38688,0.105246 0.73936,0.03912 0.85861,-0.161076 0.86638,-0.07454 0.33748,3.760295 -0.3947,2.861802 -1.67257,11.93046 -1.88506,13.377672 -0.15288,1.041231 -2.19648,14.142297 -2.28963,14.678316 -0.05,0.287758 -0.27039,1.648881 -0.48974,3.024714 -0.21935,1.375833 -0.43501,2.717993 -0.47926,2.982576 -0.0442,0.264584 -0.34647,2.126287 -0.67161,4.137107 -0.32515,2.010834 -0.84724,5.2147 -1.16022,7.1197 -0.31297,1.905 -0.70344,4.329562 -0.8677,5.387895 -0.16426,1.058334 -0.34185,2.172415 -0.39464,2.475733 -0.14714,0.845423 -2.44114,16.049387 -2.77657,18.402277 -0.19,1.33281 -0.30384,2.10208 -0.58373,3.94469 -0.0965,0.635 -0.22634,1.50093 -0.28864,1.92427 -0.17857,1.21353 -0.48421,3.22511 -0.57012,3.75226 -0.088,0.53975 -1.22002,7.66623 -1.36023,8.56287 -0.0496,0.3175 -0.13059,0.79375 -0.17986,1.05834 -0.0938,0.504 -0.13934,0.78602 -0.48106,2.98256 -0.34171,2.19658 -0.3872,2.47857 -0.48106,2.9826 -0.0493,0.26458 -0.13586,0.78412 -0.19242,1.15454 -0.0566,0.37041 -0.14316,0.88995 -0.19243,1.15453 -0.1132,0.60791 -0.23428,1.39798 -0.38337,2.50153 -0.0643,0.47625 -0.15159,0.99579 -0.1939,1.15454 -0.0423,0.15875 -0.12889,0.67831 -0.19242,1.15456 -0.0635,0.47625 -0.15012,0.99579 -0.19243,1.15454 -0.0423,0.15875 -0.12956,0.67828 -0.1939,1.15453 -0.14908,1.10355 -0.27017,1.89362 -0.38337,2.50153 -0.0939,0.50401 -0.13934,0.786 -0.48106,2.98257 -0.11525,0.74083 -0.24514,1.56345 -0.28864,1.82803 -0.0435,0.26458 -0.17338,1.0872 -0.28863,1.82803 -0.34172,2.19655 -0.38721,2.47857 -0.48106,2.98257 -0.0493,0.26459 -0.12924,0.74084 -0.17771,1.05834 -0.0485,0.3175 -0.43961,2.67427 -0.86922,5.23729 -0.8811,5.25658 -0.89329,5.37334 -0.47796,4.57676 0.16543,-0.31726 0.41337,-0.70691 0.55098,-0.8659 0.13761,-0.15899 0.28315,-0.37565 0.32342,-0.48149 0.1063,-0.27937 1.83082,-2.91499 3.14765,-4.8106 3.63724,-5.23592 5.78222,-8.14972 7.50756,-10.1985 0.53476,-0.635 1.22816,-1.5009 1.54089,-1.92423 2.34174,-3.16989 12.61154,-14.06197 17.1452,-18.1841 5.13739,-4.67106 5.44907,-4.89572 7.86979,-5.67266 3.40556,-1.09303 7.97301,-1.60531 12.60377,-1.41362 4.62063,0.19129 4.8759,0.34936 3.13952,1.9444 -3.6839,3.38396 -8.3762,8.00925 -12.95315,12.7681 -2.80958,2.92126 -8.54943,9.71658 -11.04908,13.08084 -0.48056,0.6468 -1.00531,1.28519 -1.16612,1.41864 -0.16079,0.13346 -0.29237,0.32827 -0.29237,0.43291 0,0.10465 -0.34636,0.60397 -0.7697,1.10959 -0.42333,0.50562 -0.7697,0.98496 -0.7697,1.06521 0,0.0803 -0.28416,0.50117 -0.63148,0.93541 -0.52234,0.65302 -2.36873,3.32221 -3.12079,4.51146 -0.10583,0.16738 -0.64702,0.98383 -1.20264,1.81436 -0.55563,0.83052 -1.01023,1.56167 -1.01023,1.62477 0,0.0631 -0.21647,0.39855 -0.48106,0.74544 -0.26458,0.34687 -0.48106,0.69324 -0.48106,0.7697 0,0.0764 -0.22088,0.42857 -0.49085,0.78253 -0.26997,0.35394 -0.42973,0.64355 -0.35503,0.64355 0.0747,0 0.001,0.15153 -0.1631,0.33673 -0.16442,0.18521 -0.47276,0.64958 -0.68522,1.03196 -0.76458,1.3761 -0.90674,1.61822 -1.11709,1.90251 -0.11745,0.15875 -0.47271,0.76489 -0.78946,1.34697 -0.31674,0.58208 -0.77608,1.4047 -1.02075,1.82803 -0.24467,0.42333 -0.72102,1.28924 -1.05856,1.92424 -0.33753,0.635 -0.81034,1.5009 -1.05068,1.92423 -0.40954,0.72139 -1.28842,2.35659 -2.84412,5.29167 -1.13423,2.13992 -1.8354,3.55986 -1.75787,3.55986 0.0409,0 -0.10433,0.25977 -0.3228,0.57727 -0.49237,0.71556 -4.65055,9.15474 -7.30053,14.81669 -0.39627,0.84666 -1.02878,2.18882 -1.40558,2.98257 -0.3768,0.79375 -0.6951,1.48648 -0.70735,1.53939 -0.0122,0.0529 -0.37726,0.83222 -0.81115,1.73181 -0.43389,0.89958 -1.11037,2.32833 -1.50329,3.175 -0.39292,0.84666 -0.97998,2.10224 -1.30458,2.79016 -0.3246,0.68792 -0.60148,1.29405 -0.61528,1.34697 -0.0138,0.0529 -0.39542,0.87553 -0.84805,1.82803 -0.45262,0.9525 -1.15225,2.42454 -1.55474,3.2712 -0.40249,0.84667 -0.92443,1.97237 -1.15986,2.50153 -0.23542,0.52917 -0.67758,1.49969 -0.98257,2.15673 -0.30498,0.65706 -0.55452,1.23899 -0.55452,1.29318 0,0.0542 -0.2087,0.5557 -0.46379,1.11445 -0.53579,1.17366 -2.83319,6.8871 -2.8845,7.17351 -0.20176,1.1262 -0.81038,2.20816 -1.30299,2.31635 -0.29687,0.0652 -0.58916,0.19849 -0.64954,0.29617 -0.0604,0.0977 -0.5203,0.17765 -1.02205,0.17765 -0.50175,0 -1.00922,0.0969 -1.12769,0.21539 -0.36839,0.36838 -4.949478,0.76153 -9.707289,0.83307 -2.504731,0.0376 -4.803566,0.12324 -5.108517,0.19024 -0.304951,0.067 -0.622922,0.0538 -0.706602,-0.0293 z"
       id="path1" />
  </g>
</svg>
